# Blender 3.5.0
# www.blender.org
mtllib CyberBuilding2.mtl
o Cube.001_Cube.003
v 0.009389 9.001442 -0.942853
v 0.009389 5.101442 -1.824545
v 0.009389 5.101442 -0.942853
v 0.009389 9.001442 -1.824545
v 0.142475 5.101442 -1.824545
v 0.142475 9.001442 -1.824545
v 0.142475 5.101442 -0.942853
v 0.142475 9.001442 -0.942853
v -0.997814 9.935101 0.985457
v -0.997814 7.948289 -0.990860
v -0.997814 7.948289 0.985457
v -0.997814 9.935101 -0.990859
v 0.978502 7.948289 -0.990860
v 0.978502 9.935101 -0.990859
v 0.978502 7.948289 0.985457
v 0.978502 9.935101 0.985457
v 0.978502 0.001045 -0.990860
v -0.997814 0.001045 0.985456
v -0.997814 0.001045 -0.990860
v 0.978502 1.987857 0.985456
v 0.978502 0.001045 0.985456
v 0.978502 3.974667 0.985457
v -0.997814 1.987857 0.985456
v 0.978502 5.961479 0.985457
v -0.997814 3.974667 0.985457
v -0.997814 5.961479 0.985457
v 0.978502 1.987857 -0.990861
v 0.978502 3.974667 -0.990860
v 0.978502 5.961479 -0.990860
v -0.997814 1.987857 -0.990861
v -0.997814 3.974667 -0.990860
v -0.997814 5.961479 -0.990860
vn -1.0000 -0.0000 -0.0000
vn -0.0000 -0.0000 -1.0000
vn 1.0000 -0.0000 -0.0000
vn -0.0000 -0.0000 1.0000
vn -0.0000 -1.0000 -0.0000
vn -0.0000 1.0000 -0.0000
vt 0.998764 0.513233
vt 0.625000 1.000000
vt 0.285277 0.227892
vt 0.299481 0.217785
vt 0.285277 0.468250
vt 0.955258 0.228665
vt 0.998764 0.228665
vt 0.375000 1.000000
vt 0.285277 0.227892
vt 0.955258 0.513233
vt 0.299481 0.503381
vt 0.285277 0.468250
vt 0.994065 0.224573
vt 0.292891 0.217785
vt 0.305685 0.468250
vt 0.305685 0.468250
vt 0.292891 0.503381
vt 0.994065 0.522880
vt 0.375000 0.750000
vt 0.959958 0.224573
vt 0.305685 0.227892
vt 0.959958 0.522880
vt 0.625000 0.750000
vt 0.305685 0.227892
vt 0.313725 0.183512
vt 0.253474 0.180706
vt 0.973624 0.940522
vt 0.244946 0.326981
vt 0.256330 0.098189
vt 0.245083 0.522634
vt 0.033731 0.522634
vt 0.313725 0.098189
vt 0.253474 0.098661
vt 0.002834 0.522634
vt 0.164854 0.522634
vt 0.256330 0.183512
vt 0.244946 0.521684
vt 0.973624 0.739108
vt 0.313857 0.093793
vt 0.113972 0.326981
vt 0.214186 0.522634
vt 0.113961 0.522634
vt 0.772210 0.739108
vt 0.113972 0.521684
vt 0.313857 0.186427
vt 0.308665 0.098661
vt 0.251544 0.093793
vt 0.133956 0.522634
vt 0.083063 0.522634
vt 0.251544 0.186427
vt 0.308665 0.180706
vt 0.772210 0.940522
vt 0.211662 0.328126
vt 0.375000 0.500000
vt 0.113083 0.328126
vt 0.163140 0.328126
vt 0.125000 0.750000
vt 0.003782 0.328126
vt 0.125000 0.500000
vt 0.242051 0.328126
vt 0.034172 0.328126
vt 0.133951 0.322038
vt 0.132750 0.519848
vt 0.082694 0.519848
vt 0.083087 0.322038
vt 0.132750 0.328126
vt 0.375000 0.750000
vt 0.082694 0.328126
vt 0.135890 0.328152
vt 0.133951 0.516849
vt 0.083087 0.516849
vt 0.085757 0.328152
vt 0.164830 0.322038
vt 0.003782 0.519848
vt 0.002904 0.322038
vt 0.163140 0.519848
vt 0.133956 0.327710
vt 0.135890 0.520168
vt 0.085757 0.520168
vt 0.083063 0.327710
vt 0.166327 0.328152
vt 0.002904 0.516849
vt 0.006724 0.328152
vt 0.164830 0.516849
vt 0.164854 0.327710
vt 0.006724 0.520168
vt 0.002834 0.327710
vt 0.166327 0.520168
vt 0.214133 0.322038
vt 0.211662 0.519848
vt 0.113083 0.519848
vt 0.113966 0.322038
vt 0.214923 0.328152
vt 0.214133 0.516849
vt 0.113966 0.516849
vt 0.116193 0.328152
vt 0.214186 0.327710
vt 0.214923 0.520168
vt 0.116193 0.520168
vt 0.113961 0.327710
vt 0.245013 0.322038
vt 0.242051 0.519848
vt 0.034172 0.519848
vt 0.033784 0.322038
vt 0.245359 0.328152
vt 0.245013 0.516849
vt 0.033784 0.516849
vt 0.037161 0.328152
vt 0.245083 0.327710
vt 0.245359 0.520168
vt 0.037161 0.520168
vt 0.033731 0.327710
s 1
usemtl Default_OBJ.008
f 1/1/1 2/6/1 3/7/1
f 4/11/2 5/14/2 2/4/2
f 6/18/3 7/20/3 5/13/3
f 8/23/4 3/8/4 7/19/4
f 5/15/5 3/9/5 2/5/5
f 4/12/6 8/24/6 6/16/6
f 9/25/1 10/29/1 11/32/1
f 12/37/2 13/40/2 10/28/2
f 14/45/3 15/47/3 13/39/3
f 16/51/4 11/33/4 15/46/4
f 17/54/5 18/57/5 19/59/5
f 12/38/6 16/52/6 14/43/6
f 20/63/4 18/58/4 21/66/4
f 22/70/4 23/75/4 20/62/4
f 24/78/4 25/83/4 22/69/4
f 15/48/4 26/87/4 24/77/4
f 27/90/3 21/68/3 17/53/3
f 28/94/3 20/65/3 27/89/3
f 29/98/3 22/72/3 28/93/3
f 13/41/3 24/80/3 29/97/3
f 30/102/2 17/55/2 19/60/2
f 31/106/2 27/92/2 30/101/2
f 32/110/2 28/96/2 31/105/2
f 10/30/2 29/100/2 32/109/2
f 23/76/1 19/61/1 18/56/1
f 25/84/1 30/104/1 23/73/1
f 26/88/1 31/108/1 25/81/1
f 11/35/1 32/112/1 26/85/1
f 1/1/1 4/10/1 2/6/1
f 4/11/2 6/17/2 5/14/2
f 6/18/3 8/22/3 7/20/3
f 8/23/4 1/2/4 3/8/4
f 5/15/5 7/21/5 3/9/5
f 4/12/6 1/3/6 8/24/6
f 9/25/1 12/36/1 10/29/1
f 12/37/2 14/44/2 13/40/2
f 14/45/3 16/50/3 15/47/3
f 16/51/4 9/26/4 11/33/4
f 17/54/5 21/67/5 18/57/5
f 12/38/6 9/27/6 16/52/6
f 20/63/4 23/74/4 18/58/4
f 22/70/4 25/82/4 23/75/4
f 24/78/4 26/86/4 25/83/4
f 15/48/4 11/34/4 26/87/4
f 27/90/3 20/64/3 21/68/3
f 28/94/3 22/71/3 20/65/3
f 29/98/3 24/79/3 22/72/3
f 13/41/3 15/49/3 24/80/3
f 30/102/2 27/91/2 17/55/2
f 31/106/2 28/95/2 27/92/2
f 32/110/2 29/99/2 28/96/2
f 10/30/2 13/42/2 29/100/2
f 23/76/1 30/103/1 19/61/1
f 25/84/1 31/107/1 30/104/1
f 26/88/1 32/111/1 31/108/1
f 11/35/1 10/31/1 32/112/1
