# Blender v2.82 (sub 7) OBJ File: ''
# www.blender.org
mtllib CyberBuilding3.mtl
o Cube_Cube.001
v -1.000000 3.422656 -0.768283
v -1.000000 3.246361 -0.999998
v -1.000000 3.246361 -0.768283
v 0.775683 3.422656 -0.999998
v 1.000000 3.246361 -0.999998
v 0.775683 3.246361 -0.999998
v 1.000000 3.422655 0.778589
v 1.000000 3.246361 1.000000
v 1.000000 3.246361 0.778589
v -0.785397 3.422655 1.000002
v -1.000000 3.246361 1.000000
v -0.785397 3.246361 1.000000
v 1.000000 0.009148 0.778587
v 0.775683 0.009148 1.000000
v 0.775683 0.009148 0.778587
v -1.000000 3.422655 0.778589
v -0.785397 3.422655 0.778589
v 0.080000 4.875740 1.120002
v 0.080000 3.595739 1.120002
v 0.080000 3.595740 -1.119998
v 0.080000 4.875740 -1.119998
v -0.080000 3.595740 -1.119998
v -0.080000 4.875740 -1.119998
v -0.080000 3.595739 1.120002
v -0.080000 4.875740 1.120002
v 0.044624 3.620725 -0.585589
v 0.044624 3.360376 -0.585589
v 0.044624 3.360376 -0.671474
v 0.044624 3.620725 -0.671474
v -0.044624 3.360376 -0.671474
v -0.044624 3.620725 -0.671474
v -0.044624 3.360376 -0.585589
v -0.044624 3.620725 -0.585589
v 0.044624 3.620725 0.575415
v 0.044624 3.360376 0.575415
v 0.044624 3.360376 0.489529
v 0.044624 3.620725 0.489529
v -0.044624 3.360376 0.489529
v -0.044624 3.620725 0.489529
v -0.044624 3.360376 0.575415
v -0.044624 3.620725 0.575415
v -0.785397 2.037135 1.000000
v -1.000000 0.009148 1.000000
v -0.785397 0.009148 1.000000
v 1.000000 2.037135 0.778587
v 1.000000 0.009148 1.000000
v 0.775683 2.037136 -1.000000
v 1.000000 0.009148 -1.000000
v 0.775683 0.009148 -1.000000
v -1.000000 2.037136 -0.768285
v -1.000000 0.009148 -1.000000
v -1.000000 0.009148 -0.768285
v -0.785397 2.218626 1.000000
v -1.000000 2.218626 1.000000
v -0.785397 2.218626 1.000000
v 1.000000 2.218626 0.778587
v 1.000000 2.037135 1.000000
v 0.775683 2.218626 -1.000000
v 1.000000 2.037136 -1.000000
v -1.000000 2.218626 -0.768285
v -1.000000 2.037136 -1.000000
v -1.000000 2.218626 1.344681
v -1.000000 2.218626 1.000000
v 1.000000 2.218626 1.000000
v 1.000000 2.218626 -1.000000
v -1.000000 2.218626 -1.000000
v -0.785397 2.218626 -1.000000
v 0.775683 3.246361 1.000000
v 0.775683 2.218626 1.000000
v -0.785397 2.037136 -1.000000
v 0.775683 2.037135 1.000000
v -0.785397 0.009148 -1.000000
v 0.775683 3.422655 1.000002
v 0.775683 3.422655 0.778589
v -0.785397 0.009148 0.778587
v -1.000000 0.009148 0.778587
v -1.000000 3.422656 -0.999998
v -0.785397 3.246361 -0.999998
v 1.000000 3.422655 1.000002
v 0.775683 2.218626 -0.766955
v -0.785397 3.422656 -0.999998
v -0.785397 0.009148 -0.768285
v 1.000000 3.422656 -0.768283
v 1.000000 3.422656 -0.999998
v 0.775683 3.422656 -0.768283
v -1.000000 3.246361 0.778589
v -1.000000 2.218626 0.778587
v 1.000000 2.218626 -0.768285
v -1.000000 2.037135 0.778587
v 1.000000 2.037136 -0.768285
v -0.771996 2.037135 0.778587
v 1.000000 0.009148 -0.768285
v -0.785397 3.422656 -0.768283
v 0.775683 0.009148 -0.768285
v 1.000000 3.246361 -0.768283
v -1.000000 3.422655 1.000002
v -1.000000 2.037135 1.000000
v 1.262678 2.037136 -0.768285
v 0.751863 0.009148 -0.768285
v -0.785397 3.246361 -0.766953
v -0.785397 2.218626 -0.766955
v 0.775683 3.246361 -0.766953
v 0.751863 2.037136 -0.768285
v 0.751863 0.009148 0.778587
v 0.751863 2.037135 0.778587
v 1.262678 2.218626 -0.768285
v 1.262678 2.037135 0.778587
v 1.262678 2.218626 0.778587
v -1.000000 2.037135 1.000000
v -0.785397 2.037135 1.000000
v -0.785397 3.246361 1.344682
v -0.785397 2.218626 1.344681
v -1.000000 3.246361 1.344682
v -0.771996 0.009148 -0.768285
v -0.771996 0.009148 0.778587
v -0.771996 2.037136 -0.768285
vt 0.301996 0.996380
vt 0.284266 0.972398
vt 0.301996 0.972398
vt 0.304831 0.999309
vt 0.287551 0.975165
vt 0.304831 0.975165
vt 0.287419 0.997693
vt 0.270375 0.973567
vt 0.287419 0.973567
vt 0.296784 0.988113
vt 0.280774 0.964732
vt 0.296784 0.964732
vt 0.375000 0.722323
vt 0.346960 0.750000
vt 0.346960 0.722323
vt 0.779337 0.723649
vt 0.792677 0.699181
vt 0.792677 0.723649
vt 0.707575 0.212737
vt 0.707575 0.022324
vt 0.895012 0.022324
vt 0.406930 0.518546
vt 0.406930 0.264986
vt 0.424759 0.264986
vt 0.710188 0.212611
vt 0.710188 0.020628
vt 0.899172 0.020628
vt 0.290333 0.523389
vt 0.290333 0.272419
vt 0.307979 0.272419
vt 0.375000 0.500000
vt 0.125000 0.500000
vt 0.125000 0.750000
vt 0.846471 0.933462
vt 0.836525 0.933462
vt 0.836525 0.685920
vt 0.452806 0.319469
vt 0.452806 0.248276
vt 0.466016 0.248276
vt 0.410872 0.269936
vt 0.410872 0.218362
vt 0.420817 0.218362
vt 0.274427 0.275055
vt 0.274427 0.214474
vt 0.285669 0.214474
vt 0.625000 0.750000
vt 0.375000 0.750000
vt 0.375000 1.000000
vt 0.375000 0.500000
vt 0.125000 0.750000
vt 0.125000 0.500000
vt 0.875000 0.500000
vt 0.625000 0.500000
vt 0.274224 0.319469
vt 0.274224 0.248276
vt 0.287435 0.248276
vt 0.625000 0.250000
vt 0.375000 0.250000
vt 0.375000 0.500000
vt 0.426388 0.275055
vt 0.426388 0.214474
vt 0.437629 0.214474
vt 0.294234 0.277317
vt 0.294234 0.226271
vt 0.304078 0.226271
vt 0.125000 0.750000
vt 0.125000 0.500000
vt 0.875000 0.500000
vt 0.625000 0.750000
vt 0.625000 0.500000
vt 0.296784 0.804357
vt 0.280774 0.535393
vt 0.296784 0.535393
vt 0.287419 0.808084
vt 0.270375 0.530553
vt 0.287419 0.530553
vt 0.304831 0.809563
vt 0.287551 0.531833
vt 0.304831 0.531833
vt 0.301996 0.807906
vt 0.284266 0.532036
vt 0.301996 0.532036
vt 0.536819 0.973175
vt 0.536819 1.000000
vt 0.536819 0.973175
vt 0.287419 0.832921
vt 0.270375 0.808084
vt 0.304831 0.834418
vt 0.287551 0.809563
vt 0.301996 0.832594
vt 0.284266 0.807906
vt 0.536819 1.000000
vt 0.536819 1.000000
vt 0.270375 0.832921
vt 0.287551 0.834418
vt 0.284266 0.832594
vt 0.441618 0.975165
vt 0.425087 0.834418
vt 0.441618 0.834418
vt 0.413244 0.964732
vt 0.296784 0.828427
vt 0.413244 0.828427
vt 0.425087 0.809563
vt 0.441618 0.809563
vt 0.413244 0.804357
vt 0.425087 0.531833
vt 0.441618 0.531833
vt 0.413244 0.535393
vt 0.889716 0.699181
vt 0.889716 0.723649
vt 0.151825 0.722323
vt 0.125000 0.750000
vt 0.125000 0.722323
vt 0.413244 0.988113
vt 0.441618 0.999309
vt 0.425087 0.975165
vt 0.429978 0.988113
vt 0.429978 0.964732
vt 0.903660 0.699181
vt 0.903660 0.723649
vt 0.429978 0.804357
vt 0.429978 0.535393
vt 0.429978 0.828427
vt 0.536819 0.276825
vt 0.536819 0.471960
vt 0.536819 0.471960
vt 0.151825 0.750000
vt 0.425087 0.999309
vt 0.346960 0.500000
vt 0.151825 0.528964
vt 0.151825 0.500000
vt 0.889716 0.920200
vt 0.903660 0.894594
vt 0.903660 0.920200
vt 0.125000 0.528964
vt 0.125000 0.500000
vt 0.792677 0.920200
vt 0.889716 0.894594
vt 0.420359 0.972398
vt 0.420359 0.832594
vt 0.424332 0.973567
vt 0.406495 0.832921
vt 0.424332 0.832921
vt 0.420359 0.807906
vt 0.406495 0.808084
vt 0.424332 0.808084
vt 0.523527 0.221036
vt 0.523527 0.027677
vt 0.523527 0.027677
vt 0.406495 0.530553
vt 0.424332 0.530553
vt 0.779337 0.920200
vt 0.792677 0.894594
vt 0.375000 0.500000
vt 0.346960 0.528964
vt 0.424332 0.997693
vt 0.406495 0.973567
vt 0.420359 0.996380
vt 0.437301 0.996380
vt 0.437301 0.972398
vt 0.437301 0.807906
vt 0.420359 0.532036
vt 0.437301 0.532036
vt 0.437301 0.832594
vt 0.287551 0.834418
vt 0.267316 0.809563
vt 0.287551 0.809563
vt 0.523527 0.528964
vt 0.375000 0.528964
vt 0.375000 0.528964
vt 0.779337 0.894594
vt 0.406495 0.997693
vt 0.425087 0.975165
vt 0.304831 0.834418
vt 0.425087 0.834418
vt 0.612088 0.276825
vt 0.536819 0.276825
vt 0.612088 0.471960
vt 0.612088 0.276825
vt 0.612088 0.471960
vt 0.406495 0.808084
vt 0.287419 0.530553
vt 0.406495 0.530553
vt 0.523527 0.722323
vt 0.523527 0.528964
vt 0.523527 0.722323
vt 0.375000 0.722323
vt 0.406495 0.832921
vt 0.287419 0.808084
vt 0.406495 0.808084
vt 0.523527 0.722323
vt 0.903660 0.723649
vt 0.919989 0.894594
vt 0.903660 0.894594
vt 0.429978 0.804357
vt 0.449575 0.828427
vt 0.429978 0.828427
vt 0.296784 0.828427
vt 0.280774 0.804357
vt 0.296784 0.804357
vt 0.536819 0.000000
vt 0.523527 0.000000
vt 0.536819 0.000000
vt 0.523527 1.000000
vt 0.523527 0.973175
vt 0.523527 1.000000
vt 0.523527 0.973175
vt 0.301789 0.457627
vt 0.275770 0.236110
vt 0.301789 0.236110
vt 0.997563 0.509119
vt 0.958321 0.241814
vt 0.997563 0.241814
vt 0.779337 0.699181
vt 0.792677 0.661090
vt 0.792677 0.699181
vt 0.959465 0.233011
vt 0.994818 0.516654
vt 0.959465 0.516654
vt 0.420359 0.807906
vt 0.301996 0.532036
vt 0.420359 0.532036
vt 0.375000 0.027677
vt 0.375000 0.027677
vt 0.125000 0.528964
vt 0.375000 0.221036
vt 0.523527 0.221036
vt 0.284266 0.996380
vt 0.287551 0.999309
vt 0.270375 0.997693
vt 0.280774 0.988113
vt 0.375000 0.750000
vt 0.779337 0.699181
vt 0.895012 0.212737
vt 0.424759 0.518546
vt 0.899172 0.212611
vt 0.307979 0.523389
vt 0.375000 0.750000
vt 0.846471 0.685920
vt 0.466016 0.319469
vt 0.420817 0.269936
vt 0.285669 0.275055
vt 0.625000 1.000000
vt 0.875000 0.750000
vt 0.287435 0.319469
vt 0.437629 0.275055
vt 0.304078 0.277317
vt 0.375000 0.750000
vt 0.875000 0.750000
vt 0.280774 0.804357
vt 0.536819 0.973175
vt 0.267316 0.834418
vt 0.304831 0.975165
vt 0.287419 0.808084
vt 0.287419 0.832921
vt 0.523527 0.528964
vt 0.919989 0.723649
vt 0.449575 0.804357
vt 0.280774 0.828427
vt 0.523527 0.000000
vt 0.275770 0.457627
vt 0.958321 0.509119
vt 0.779337 0.661090
vt 0.994818 0.233011
vt 0.301996 0.807906
vt 0.125000 0.722323
vt 0.375000 0.221036
vn -1.0000 0.0000 0.0000
vn 0.0000 0.0000 -1.0000
vn 1.0000 0.0000 0.0000
vn 0.0000 -0.0000 1.0000
vn 0.0000 -1.0000 -0.0000
vn 0.0000 1.0000 0.0000
usemtl Default_OBJ.001
s 1
f 1/1/1 2/2/1 3/3/1
f 4/4/2 5/5/2 6/6/2
f 7/7/3 8/8/3 9/9/3
f 10/10/4 11/11/4 12/12/4
f 13/13/5 14/14/5 15/15/5
f 16/16/6 10/17/6 17/18/6
f 18/19/3 19/20/3 20/21/3
f 21/22/2 20/23/2 22/24/2
f 23/25/1 22/26/1 24/27/1
f 25/28/4 24/29/4 19/30/4
f 22/31/5 20/32/5 19/33/5
f 21/34/6 23/35/6 25/36/6
f 26/37/3 27/38/3 28/39/3
f 29/40/2 28/41/2 30/42/2
f 31/43/1 30/44/1 32/45/1
f 33/46/4 32/47/4 27/48/4
f 30/49/6 27/50/6 28/51/6
f 29/52/5 33/46/5 31/53/5
f 34/54/3 35/55/3 36/56/3
f 37/57/2 36/58/2 38/59/2
f 39/60/1 38/61/1 40/62/1
f 41/63/4 40/64/4 35/65/4
f 38/59/6 35/66/6 36/67/6
f 37/68/5 41/69/5 39/70/5
f 42/71/4 43/72/4 44/73/4
f 45/74/3 46/75/3 13/76/3
f 47/77/2 48/78/2 49/79/2
f 50/80/1 51/81/1 52/82/1
f 53/83/4 54/84/4 55/85/4
f 56/86/3 57/87/3 45/74/3
f 58/88/2 59/89/2 47/77/2
f 60/90/1 61/91/1 50/80/1
f 53/83/5 62/92/5 63/93/5
f 9/9/3 64/94/3 56/86/3
f 6/6/2 65/95/2 58/88/2
f 3/3/1 66/96/1 60/90/1
f 2/97/2 67/98/2 66/99/2
f 68/100/4 53/101/4 69/102/4
f 66/99/2 70/103/2 61/104/2
f 69/102/4 42/71/4 71/105/4
f 61/104/2 72/106/2 51/107/2
f 71/105/4 44/73/4 14/108/4
f 17/18/6 73/109/6 74/110/6
f 75/111/5 43/112/5 76/113/5
f 73/114/4 12/12/4 68/100/4
f 77/115/2 78/116/2 2/97/2
f 79/117/4 68/100/4 8/118/4
f 74/110/6 79/119/6 7/120/6
f 57/121/4 14/108/4 46/122/4
f 64/123/4 71/105/4 57/121/4
f 8/118/4 69/102/4 64/123/4
f 67/124/6 80/125/6 58/126/6
f 67/98/2 47/77/2 70/103/2
f 70/103/2 49/79/2 72/106/2
f 15/15/5 44/127/5 75/111/5
f 81/128/2 6/6/2 78/116/2
f 49/129/5 82/130/5 72/131/5
f 4/132/6 83/133/6 84/134/6
f 72/131/5 52/135/5 51/136/5
f 81/137/6 85/138/6 4/132/6
f 86/139/1 60/90/1 87/140/1
f 5/141/3 88/142/3 65/143/3
f 87/140/1 50/80/1 89/144/1
f 65/143/3 90/145/3 59/146/3
f 50/147/5 91/148/5 89/149/5
f 59/146/3 92/150/3 48/151/3
f 77/152/6 93/153/6 81/137/6
f 48/154/5 94/155/5 49/129/5
f 84/156/3 95/157/3 5/141/3
f 16/158/1 3/3/1 86/139/1
f 96/159/1 86/139/1 11/160/1
f 97/161/1 76/162/1 43/163/1
f 63/164/1 89/144/1 97/161/1
f 11/160/1 87/140/1 63/164/1
f 94/155/5 75/111/5 82/130/5
f 85/138/6 7/120/6 83/133/6
f 82/130/5 76/113/5 52/135/5
f 93/153/6 74/110/6 85/138/6
f 95/157/3 56/86/3 88/142/3
f 88/165/2 98/166/2 90/167/2
f 90/168/4 99/169/4 92/170/4
f 1/171/6 17/18/6 93/153/6
f 92/170/5 15/15/5 94/155/5
f 83/172/3 9/9/3 95/157/3
f 100/173/2 80/174/2 101/175/2
f 78/176/3 101/177/3 67/124/3
f 6/178/5 100/179/5 78/176/5
f 58/126/1 102/180/1 6/178/1
f 103/181/3 104/182/3 99/183/3
f 45/184/5 103/185/5 90/168/5
f 13/13/2 105/186/2 45/184/2
f 92/170/6 104/187/6 13/13/6
f 106/188/3 107/189/3 98/190/3
f 90/168/5 107/191/5 45/184/5
f 56/192/6 106/193/6 88/194/6
f 45/195/4 108/196/4 56/197/4
f 55/198/4 109/199/4 110/200/4
f 63/201/4 109/202/4 54/203/4
f 97/204/4 110/205/4 109/206/4
f 42/207/4 55/85/4 110/205/4
f 111/208/4 62/209/4 112/210/4
f 12/211/3 112/212/3 53/213/3
f 11/214/6 111/215/6 12/216/6
f 63/217/1 113/218/1 11/219/1
f 91/220/1 114/221/1 115/222/1
f 89/149/2 115/223/2 76/224/2
f 76/113/6 114/225/6 52/135/6
f 52/226/4 116/227/4 50/147/4
f 1/1/1 77/228/1 2/2/1
f 4/4/2 84/229/2 5/5/2
f 7/7/3 79/230/3 8/8/3
f 10/10/4 96/231/4 11/11/4
f 13/13/5 46/232/5 14/14/5
f 16/16/6 96/233/6 10/17/6
f 18/19/3 20/21/3 21/234/3
f 21/22/2 22/24/2 23/235/2
f 23/25/1 24/27/1 25/236/1
f 25/28/4 19/30/4 18/237/4
f 22/31/5 19/33/5 24/238/5
f 21/34/6 25/36/6 18/239/6
f 26/37/3 28/39/3 29/240/3
f 29/40/2 30/42/2 31/241/2
f 31/43/1 32/45/1 33/242/1
f 33/46/4 27/48/4 26/243/4
f 30/49/6 32/47/6 27/50/6
f 29/52/5 26/244/5 33/46/5
f 34/54/3 36/56/3 37/245/3
f 37/57/2 38/59/2 39/70/2
f 39/60/1 40/62/1 41/246/1
f 41/63/4 35/65/4 34/247/4
f 38/59/6 40/248/6 35/66/6
f 37/68/5 34/249/5 41/69/5
f 42/71/4 97/250/4 43/72/4
f 45/74/3 57/87/3 46/75/3
f 47/77/2 59/89/2 48/78/2
f 50/80/1 61/91/1 51/81/1
f 53/83/4 63/93/4 54/84/4
f 56/86/3 64/94/3 57/87/3
f 58/88/2 65/95/2 59/89/2
f 60/90/1 66/96/1 61/91/1
f 53/83/5 112/251/5 62/92/5
f 9/9/3 8/8/3 64/94/3
f 6/6/2 5/5/2 65/95/2
f 3/3/1 2/2/1 66/96/1
f 2/97/2 78/116/2 67/98/2
f 68/100/4 12/12/4 53/101/4
f 66/99/2 67/98/2 70/103/2
f 69/102/4 53/101/4 42/71/4
f 61/104/2 70/103/2 72/106/2
f 71/105/4 42/71/4 44/73/4
f 17/18/6 10/17/6 73/109/6
f 75/111/5 44/127/5 43/112/5
f 73/114/4 10/10/4 12/12/4
f 77/115/2 81/128/2 78/116/2
f 79/117/4 73/114/4 68/100/4
f 74/110/6 73/109/6 79/119/6
f 57/121/4 71/105/4 14/108/4
f 64/123/4 69/102/4 71/105/4
f 8/118/4 68/100/4 69/102/4
f 67/124/6 101/177/6 80/125/6
f 67/98/2 58/88/2 47/77/2
f 70/103/2 47/77/2 49/79/2
f 15/15/5 14/14/5 44/127/5
f 81/128/2 4/4/2 6/6/2
f 49/129/5 94/155/5 82/130/5
f 4/132/6 85/138/6 83/133/6
f 72/131/5 82/130/5 52/135/5
f 81/137/6 93/153/6 85/138/6
f 86/139/1 3/3/1 60/90/1
f 5/141/3 95/157/3 88/142/3
f 87/140/1 60/90/1 50/80/1
f 65/143/3 88/142/3 90/145/3
f 50/147/5 116/227/5 91/148/5
f 59/146/3 90/145/3 92/150/3
f 77/152/6 1/171/6 93/153/6
f 48/154/5 92/170/5 94/155/5
f 84/156/3 83/172/3 95/157/3
f 16/158/1 1/1/1 3/3/1
f 96/159/1 16/158/1 86/139/1
f 97/161/1 89/144/1 76/162/1
f 63/164/1 87/140/1 89/144/1
f 11/160/1 86/139/1 87/140/1
f 94/155/5 15/15/5 75/111/5
f 85/138/6 74/110/6 7/120/6
f 82/130/5 75/111/5 76/113/5
f 93/153/6 17/18/6 74/110/6
f 95/157/3 9/9/3 56/86/3
f 88/165/2 106/252/2 98/166/2
f 90/168/4 103/185/4 99/169/4
f 1/171/6 16/16/6 17/18/6
f 92/170/5 13/13/5 15/15/5
f 83/172/3 7/7/3 9/9/3
f 100/173/2 102/253/2 80/174/2
f 78/176/3 100/179/3 101/177/3
f 6/178/5 102/180/5 100/179/5
f 58/126/1 80/125/1 102/180/1
f 103/181/3 105/254/3 104/182/3
f 45/184/5 105/186/5 103/185/5
f 13/13/2 104/187/2 105/186/2
f 92/170/6 99/169/6 104/187/6
f 106/188/3 108/255/3 107/189/3
f 90/168/5 98/256/5 107/191/5
f 56/192/6 108/257/6 106/193/6
f 45/195/4 107/258/4 108/196/4
f 55/198/4 54/259/4 109/199/4
f 63/201/4 97/260/4 109/202/4
f 97/204/4 42/207/4 110/205/4
f 42/207/4 53/83/4 55/85/4
f 111/208/4 113/261/4 62/209/4
f 12/211/3 111/262/3 112/212/3
f 11/214/6 113/263/6 111/215/6
f 63/217/1 62/264/1 113/218/1
f 91/220/1 116/265/1 114/221/1
f 89/149/2 91/148/2 115/223/2
f 76/113/6 115/266/6 114/225/6
f 52/226/4 114/267/4 116/227/4
