# Blender 3.6.2
# www.blender.org
mtllib teacherDesk.mtl
o Cube.004
v -13.634436 2.250000 -9.651264
v -13.634436 2.250000 -9.751265
v -10.838524 2.250000 -9.651264
v -10.838524 2.250000 -9.751265
v -13.634436 -0.000000 -9.651264
v -13.634436 -0.000000 -9.751265
v -10.838524 0.000000 -9.651264
v -10.838524 0.000000 -9.751265
v -13.680583 2.350000 -4.800000
v -13.680583 2.250000 -4.800000
v -13.680583 2.350000 -9.800000
v -13.680583 2.250000 -9.800000
v -10.680583 2.350000 -4.799999
v -10.680583 2.250000 -4.799999
v -10.680583 2.350000 -9.799999
v -10.680583 2.250000 -9.799999
v -10.738542 2.250000 -4.863530
v -10.838541 2.250000 -4.863530
v -10.738542 2.250000 -9.751265
v -10.838541 2.250000 -9.751265
v -10.738542 -0.000000 -4.863530
v -10.838541 -0.000000 -4.863530
v -10.738542 -0.000000 -9.751265
v -10.838541 -0.000000 -9.751265
v -13.634438 2.250000 -4.863529
v -13.634438 2.250000 -4.963529
v -10.838526 2.250000 -4.863529
v -10.838526 2.250000 -4.963530
v -13.634438 -0.000000 -4.863529
v -13.634438 -0.000000 -4.963529
v -10.838526 0.000000 -4.863529
v -10.838526 0.000000 -4.963529
vn -0.0000 1.0000 -0.0000
vn 1.0000 -0.0000 -0.0000
vn -0.0000 -1.0000 -0.0000
vn -1.0000 -0.0000 -0.0000
vn -0.0000 -0.0000 1.0000
vn -0.0000 -0.0000 -1.0000
vt 0.625000 0.000000
vt 0.375000 0.250000
vt 0.375000 0.000000
vt 0.625000 0.500000
vt 0.375000 0.500000
vt 0.625000 0.750000
vt 0.375000 0.750000
vt 0.375000 1.000000
vt 0.125000 0.750000
vt 0.125000 0.500000
vt 0.875000 0.750000
vt 0.625000 0.250000
vt 0.875000 0.500000
vt 0.625000 1.000000
s 0
usemtl blackWood
f 2/1/1 1/3/1 3/2/1
f 3/2/2 7/5/2 8/4/2
f 7/5/3 5/7/3 6/6/3
f 6/6/4 5/7/4 1/8/4
f 7/5/5 3/10/5 1/9/5
f 8/4/6 6/6/6 2/11/6
f 10/1/4 9/3/4 11/2/4
f 12/12/6 11/2/6 15/5/6
f 16/4/2 15/5/2 13/7/2
f 14/6/5 13/7/5 9/8/5
f 15/5/1 11/10/1 9/9/1
f 12/13/3 16/4/3 14/6/3
f 18/1/1 17/3/1 19/2/1
f 20/12/6 19/2/6 23/5/6
f 24/4/3 23/5/3 21/7/3
f 22/6/5 21/7/5 17/8/5
f 23/5/2 19/10/2 17/9/2
f 20/13/4 24/4/4 22/6/4
f 26/1/1 25/3/1 27/2/1
f 27/2/2 31/5/2 32/4/2
f 32/4/3 31/5/3 29/7/3
f 30/6/4 29/7/4 25/8/4
f 31/5/5 27/10/5 25/9/5
f 32/4/6 30/6/6 26/11/6
f 2/1/1 3/2/1 4/12/1
f 3/2/2 8/4/2 4/12/2
f 7/5/3 6/6/3 8/4/3
f 6/6/4 1/8/4 2/14/4
f 7/5/5 1/9/5 5/7/5
f 8/4/6 2/11/6 4/13/6
f 10/1/4 11/2/4 12/12/4
f 12/12/6 15/5/6 16/4/6
f 16/4/2 13/7/2 14/6/2
f 14/6/5 9/8/5 10/14/5
f 15/5/1 9/9/1 13/7/1
f 12/13/3 14/6/3 10/11/3
f 18/1/1 19/2/1 20/12/1
f 20/12/6 23/5/6 24/4/6
f 24/4/3 21/7/3 22/6/3
f 22/6/5 17/8/5 18/14/5
f 23/5/2 17/9/2 21/7/2
f 20/13/4 22/6/4 18/11/4
f 26/1/1 27/2/1 28/12/1
f 27/2/2 32/4/2 28/12/2
f 32/4/3 29/7/3 30/6/3
f 30/6/4 25/8/4 26/14/4
f 31/5/5 25/9/5 29/7/5
f 32/4/6 26/11/6 28/13/6
